<?xml version="1.0" standalone="no"?>
<!DOCTYPE svg PUBLIC "-//W3C//DTD SVG 20010904//EN"
 "http://www.w3.org/TR/2001/REC-SVG-20010904/DTD/svg10.dtd">
<svg version="1.0" xmlns="http://www.w3.org/2000/svg"
 width="700.000000pt" height="700.000000pt" viewBox="0 0 700.000000 700.000000"
 preserveAspectRatio="xMidYMid meet">
<metadata>
Created by potrace 1.11, written by Peter Selinger 2001-2013
</metadata>
<g transform="translate(0.000000,700.000000) scale(0.100000,-0.100000)"
fill="#000000" stroke="none">
<path d="M800 6463 c-87 -13 -161 -57 -190 -113 -36 -68 -36 -75 -35 -2870 1
-2571 2 -2749 18 -2802 22 -71 69 -120 135 -139 38 -11 185 -14 762 -14 393 0
725 3 737 7 78 24 126 73 156 162 7 21 11 512 12 1518 1 818 4 1490 6 1493 4
4 82 -137 355 -645 172 -320 166 -311 244 -389 43 -44 70 -61 125 -81 68 -24
76 -25 350 -25 154 0 298 4 320 9 91 19 191 91 249 179 33 52 140 242 157 281
5 12 13 28 19 36 14 23 91 163 155 285 32 61 61 115 65 120 4 6 33 60 65 120
31 61 60 113 64 117 3 4 6 -664 7 -1485 0 -1365 2 -1497 17 -1548 15 -50 36
-80 81 -117 8 -7 42 -19 75 -27 51 -14 161 -15 783 -13 l723 3 55 27 c63 31
91 68 114 147 14 49 16 327 16 2800 -1 2665 -1 2748 -20 2801 -23 67 -88 133
-151 152 -35 10 -203 13 -799 13 -696 0 -759 -1 -805 -18 -110 -39 -167 -101
-283 -310 -40 -71 -72 -130 -72 -132 0 -2 -15 -30 -34 -62 -18 -32 -55 -98
-81 -148 -26 -49 -70 -130 -98 -180 -27 -49 -70 -128 -95 -175 -24 -47 -48
-89 -52 -95 -4 -5 -32 -55 -61 -110 -29 -55 -66 -122 -81 -150 -15 -27 -51
-94 -80 -148 -101 -188 -133 -214 -246 -205 -59 5 -95 27 -120 73 -9 17 -20
32 -24 33 -5 2 -8 8 -8 12 0 5 -52 101 -115 215 -63 113 -115 207 -115 209 0
2 -16 33 -36 68 -21 34 -51 90 -69 123 -158 293 -440 794 -470 835 -48 65
-111 116 -177 143 -52 21 -61 21 -788 22 -404 1 -746 0 -760 -2z"/>
</g>
</svg>
